# Wavefront OBJ exported by MilkShape 3D

mtllib axis.mtl

v 0.000000 0.000000 0.015000
v -0.008817 0.000000 0.012135
v -0.014266 0.000000 0.004636
v -0.012212 -0.008450 -0.004634
v -0.008818 -0.008958 -0.012135
v -0.000001 0.000000 -0.015000
v 0.008815 0.000000 -0.012136
v 0.014265 0.000000 -0.004637
v 0.014267 0.000000 0.004633
v 0.008819 0.000000 0.012134
v 0.000000 0.850000 0.015000
v -0.008817 0.850000 0.012135
v -0.014266 0.850000 0.004636
v -0.014266 0.850000 -0.004634
v -0.008818 0.850000 -0.012135
v -0.000001 0.850000 -0.015000
v 0.008815 0.850000 -0.012136
v 0.014265 0.850000 -0.004637
v 0.014267 0.850000 0.004633
v 0.008819 0.850000 0.012134
v 0.000000 0.800000 0.050000
v -0.029389 0.800000 0.040451
v -0.047552 0.800000 0.015453
v -0.047554 0.800000 -0.015448
v -0.029392 0.800000 -0.040449
v -0.000005 0.800000 -0.050000
v 0.029385 0.800000 -0.040454
v 0.047551 0.800000 -0.015457
v 0.047555 0.800000 0.015444
v 0.029396 0.800000 0.040446
v 0.000000 1.000000 0.000500
v -0.000294 1.000000 0.000405
v -0.000476 1.000000 0.000155
v -0.000476 1.000000 -0.000154
v -0.000294 1.000000 -0.000404
v 0.000000 1.000000 -0.000500
v 0.000294 1.000000 -0.000405
v 0.000476 1.000000 -0.000155
v 0.000476 1.000000 0.000154
v 0.000294 1.000000 0.000404
v 0.000000 0.000000 0.015000
v 0.000000 0.008817 0.012135
v 0.000000 0.014266 0.004636
v 0.000000 0.014266 -0.004634
v 0.000000 0.008818 -0.012135
v 0.000000 0.000001 -0.015000
v -0.008958 -0.008815 -0.012136
v -0.004776 -0.014265 -0.004637
v 0.000000 -0.014267 0.004633
v 0.000000 -0.008819 0.012134
v 0.850000 0.000022 0.015000
v 0.850000 0.008839 0.012135
v 0.850000 0.014288 0.004636
v 0.850000 0.014288 -0.004634
v 0.850000 0.008840 -0.012135
v 0.850000 0.000024 -0.015000
v 0.850000 -0.008793 -0.012136
v 0.850000 -0.014243 -0.004637
v 0.850000 -0.014244 0.004633
v 0.850000 -0.008796 0.012134
v 0.800000 0.000021 0.050000
v 0.799999 0.029410 0.040451
v 0.799999 0.047573 0.015453
v 0.799999 0.047575 -0.015448
v 0.799999 0.029413 -0.040449
v 0.800000 0.000026 -0.050000
v 0.800001 -0.029364 -0.040454
v 0.800001 -0.047530 -0.015457
v 0.800001 -0.047534 0.015444
v 0.800001 -0.029375 0.040446
v 1.000000 -0.000268 0.000404
v 1.000000 -0.000449 0.000154
v 1.000000 -0.000449 -0.000155
v 1.000000 -0.000268 -0.000405
v 1.000000 0.000026 -0.000500
v 1.000000 0.000320 -0.000404
v 1.000000 0.000502 -0.000154
v 1.000000 0.000502 0.000155
v 1.000000 0.000320 0.000405
v 1.000000 0.000026 0.000500
v -0.015000 0.000000 0.000000
v -0.012135 0.008817 0.000000
v -0.004636 0.014266 0.000000
v 0.004634 0.014266 0.000000
v 0.012135 0.008818 -0.000001
v 0.015000 0.000001 0.000000
v 0.012136 -0.008815 0.000000
v 0.004637 -0.014265 0.000000
v -0.004633 -0.014267 -0.004927
v -0.012134 -0.008459 -0.004702
v -0.014978 0.000022 0.850000
v -0.012113 0.008839 0.850000
v -0.004613 0.014288 0.850000
v 0.004657 0.014288 0.850000
v 0.012157 0.008840 0.849999
v 0.015022 0.000024 0.850000
v 0.012159 -0.008793 0.850000
v 0.004659 -0.014243 0.850000
v -0.004611 -0.014244 0.850001
v -0.012111 -0.008796 0.850001
v -0.049979 0.000021 0.800001
v -0.040430 0.029410 0.800000
v -0.015432 0.047573 0.799999
v 0.015469 0.047575 0.799998
v 0.040470 0.029413 0.799998
v 0.050021 0.000026 0.799999
v 0.040475 -0.029364 0.800000
v 0.015478 -0.047530 0.800001
v -0.015423 -0.047534 0.800002
v -0.040425 -0.029375 0.800002
v -0.000378 -0.000268 1.000000
v -0.000128 -0.000449 1.000000
v 0.000181 -0.000449 1.000000
v 0.000431 -0.000268 1.000000
v 0.000526 0.000026 1.000000
v 0.000431 0.000320 1.000000
v 0.000181 0.000502 1.000000
v -0.000128 0.000502 1.000000
v -0.000378 0.000320 1.000000
v -0.000474 0.000026 1.000000
# 120 vertices

vt 0.000000 1.000000
# 1 texture coordinates

vn 0.000000 -1.000000 0.000000
vn -0.309008 0.000000 0.951059
vn -0.809001 0.000000 0.587808
vn -1.000000 0.000000 0.000046
vn -0.809055 0.000000 -0.587733
vn -0.309096 0.000000 -0.951031
vn 0.308920 0.000000 -0.951088
vn 0.808946 0.000000 -0.587883
vn 1.000000 0.000000 -0.000139
vn 0.809110 0.000000 0.587658
vn 0.309096 0.000000 0.951031
vn 0.000000 1.000000 -0.000040
vn -0.300788 0.229125 0.925758
vn -0.787479 0.229125 0.572170
vn -0.973397 0.229125 0.000045
vn -0.787532 0.229125 -0.572097
vn -0.300873 0.229125 -0.925730
vn 0.300702 0.229125 -0.925786
vn 0.787426 0.229125 -0.572243
vn 0.973397 0.229125 -0.000135
vn 0.787585 0.229125 0.572024
vn 0.300874 0.229119 0.925732
vn 0.000000 0.309008 0.951059
vn -0.000021 0.809001 0.587808
vn -0.000021 0.809055 -0.587733
vn 0.000000 0.309096 -0.951031
vn 0.000000 -0.308920 -0.951088
vn 0.000021 -0.808946 -0.587883
vn 0.000021 -0.809109 0.587658
vn 0.000000 -0.309096 0.951031
vn 0.229117 0.300793 0.925759
vn 0.229104 0.787485 0.572170
vn 0.229099 0.973403 0.000045
vn 0.229105 0.787538 -0.572098
vn 0.229117 0.300879 -0.925731
vn 0.229133 -0.300696 -0.925786
vn 0.229146 -0.787420 -0.572243
vn 0.229151 -0.973391 -0.000135
vn 0.229146 -0.787579 0.572024
vn 0.229127 -0.300867 0.925732
vn -0.000026 -0.000026 -1.000000
vn -0.951059 0.309008 0.000017
vn -0.587808 0.809001 0.000000
vn 0.587733 0.809055 -0.000037
vn 0.951031 0.309096 -0.000033
vn 0.951088 -0.308920 -0.000017
vn 0.587883 -0.808946 0.000000
vn -0.587658 -0.809110 0.000037
vn -0.951031 -0.309096 0.000033
vn -0.000040 0.000000 1.000000
vn -0.925752 0.300794 0.229142
vn -0.572164 0.787485 0.229119
vn -0.000039 0.973403 0.229100
vn 0.572104 0.787537 0.229089
vn 0.925736 0.300879 0.229093
vn 0.925792 -0.300696 0.229109
vn 0.572249 -0.787420 0.229131
vn 0.000142 -0.973391 0.229151
vn -0.572017 -0.787579 0.229161
vn -0.925726 -0.300867 0.229151
# 60 normals

g default
# 0 triangles in group

g yaxis
usemtl green
s 1
f 1/1/1 2/1/1 3/1/1
f 1/1/1 3/1/1 4/1/1
f 1/1/1 4/1/1 5/1/1
f 1/1/1 5/1/1 6/1/1
f 1/1/1 6/1/1 7/1/1
f 1/1/1 7/1/1 8/1/1
f 1/1/1 8/1/1 9/1/1
f 1/1/1 9/1/1 10/1/1
f 1/1/2 11/1/2 12/1/2
f 1/1/2 12/1/2 2/1/2
f 2/1/3 12/1/3 13/1/3
f 2/1/3 13/1/3 3/1/3
f 3/1/4 13/1/4 14/1/4
f 3/1/4 14/1/4 4/1/4
f 4/1/5 14/1/5 15/1/5
f 4/1/5 15/1/5 5/1/5
f 5/1/6 15/1/6 16/1/6
f 5/1/6 16/1/6 6/1/6
f 6/1/7 16/1/7 17/1/7
f 6/1/7 17/1/7 7/1/7
f 7/1/8 17/1/8 18/1/8
f 7/1/8 18/1/8 8/1/8
f 8/1/9 18/1/9 19/1/9
f 8/1/9 19/1/9 9/1/9
f 9/1/10 19/1/10 20/1/10
f 9/1/10 20/1/10 10/1/10
f 10/1/11 20/1/11 11/1/11
f 10/1/11 11/1/11 1/1/11
f 21/1/1 22/1/1 23/1/1
f 21/1/1 23/1/1 24/1/1
f 21/1/1 24/1/1 25/1/1
f 21/1/1 25/1/1 26/1/1
f 21/1/1 26/1/1 27/1/1
f 21/1/1 27/1/1 28/1/1
f 21/1/1 28/1/1 29/1/1
f 21/1/1 29/1/1 30/1/1
f 40/1/12 39/1/12 38/1/12
f 40/1/12 38/1/12 37/1/12
f 40/1/12 37/1/12 36/1/12
f 40/1/12 36/1/12 35/1/12
f 40/1/12 35/1/12 34/1/12
f 40/1/12 34/1/12 33/1/12
f 40/1/12 33/1/12 32/1/12
f 40/1/12 32/1/12 31/1/12
f 21/1/13 31/1/13 32/1/13
f 21/1/13 32/1/13 22/1/13
f 22/1/14 32/1/14 33/1/14
f 22/1/14 33/1/14 23/1/14
f 23/1/15 33/1/15 34/1/15
f 23/1/15 34/1/15 24/1/15
f 24/1/16 34/1/16 35/1/16
f 24/1/16 35/1/16 25/1/16
f 25/1/17 35/1/17 36/1/17
f 25/1/17 36/1/17 26/1/17
f 26/1/18 36/1/18 37/1/18
f 26/1/18 37/1/18 27/1/18
f 27/1/19 37/1/19 38/1/19
f 27/1/19 38/1/19 28/1/19
f 28/1/20 38/1/20 39/1/20
f 28/1/20 39/1/20 29/1/20
f 29/1/21 39/1/21 40/1/21
f 29/1/21 40/1/21 30/1/21
f 30/1/22 40/1/22 31/1/22
f 30/1/22 31/1/22 21/1/22
# 64 triangles in group

g xaxis
usemtl red
f 41/1/4 42/1/4 43/1/4
f 41/1/4 43/1/4 44/1/4
f 41/1/4 44/1/4 45/1/4
f 41/1/4 45/1/4 46/1/4
f 41/1/4 46/1/4 47/1/4
f 41/1/4 47/1/4 48/1/4
f 41/1/4 48/1/4 49/1/4
f 41/1/4 49/1/4 50/1/4
f 41/1/23 51/1/23 52/1/23
f 41/1/23 52/1/23 42/1/23
f 42/1/24 52/1/24 53/1/24
f 42/1/24 53/1/24 43/1/24
f 43/1/12 53/1/12 54/1/12
f 43/1/12 54/1/12 44/1/12
f 44/1/25 54/1/25 55/1/25
f 44/1/25 55/1/25 45/1/25
f 45/1/26 55/1/26 56/1/26
f 45/1/26 56/1/26 46/1/26
f 46/1/27 56/1/27 57/1/27
f 46/1/27 57/1/27 47/1/27
f 47/1/28 57/1/28 58/1/28
f 47/1/28 58/1/28 48/1/28
f 48/1/1 58/1/1 59/1/1
f 48/1/1 59/1/1 49/1/1
f 49/1/29 59/1/29 60/1/29
f 49/1/29 60/1/29 50/1/29
f 50/1/30 60/1/30 51/1/30
f 50/1/30 51/1/30 41/1/30
f 61/1/4 62/1/4 63/1/4
f 61/1/4 63/1/4 64/1/4
f 61/1/4 64/1/4 65/1/4
f 61/1/4 65/1/4 66/1/4
f 61/1/4 66/1/4 67/1/4
f 61/1/4 67/1/4 68/1/4
f 61/1/4 68/1/4 69/1/4
f 61/1/4 69/1/4 70/1/4
f 71/1/9 72/1/9 73/1/9
f 71/1/9 73/1/9 74/1/9
f 71/1/9 74/1/9 75/1/9
f 71/1/9 75/1/9 76/1/9
f 71/1/9 76/1/9 77/1/9
f 71/1/9 77/1/9 78/1/9
f 71/1/9 78/1/9 79/1/9
f 71/1/9 79/1/9 80/1/9
f 61/1/31 80/1/31 79/1/31
f 61/1/31 79/1/31 62/1/31
f 62/1/32 79/1/32 78/1/32
f 62/1/32 78/1/32 63/1/32
f 63/1/33 78/1/33 77/1/33
f 63/1/33 77/1/33 64/1/33
f 64/1/34 77/1/34 76/1/34
f 64/1/34 76/1/34 65/1/34
f 65/1/35 76/1/35 75/1/35
f 65/1/35 75/1/35 66/1/35
f 66/1/36 75/1/36 74/1/36
f 66/1/36 74/1/36 67/1/36
f 67/1/37 74/1/37 73/1/37
f 67/1/37 73/1/37 68/1/37
f 68/1/38 73/1/38 72/1/38
f 68/1/38 72/1/38 69/1/38
f 69/1/39 72/1/39 71/1/39
f 69/1/39 71/1/39 70/1/39
f 70/1/40 71/1/40 80/1/40
f 70/1/40 80/1/40 61/1/40
# 64 triangles in group

g zaxis
usemtl blue
f 81/1/41 82/1/41 83/1/41
f 81/1/41 83/1/41 84/1/41
f 81/1/41 84/1/41 85/1/41
f 81/1/41 85/1/41 86/1/41
f 81/1/41 86/1/41 87/1/41
f 81/1/41 87/1/41 88/1/41
f 81/1/41 88/1/41 89/1/41
f 81/1/41 89/1/41 90/1/41
f 81/1/42 91/1/42 92/1/42
f 81/1/42 92/1/42 82/1/42
f 82/1/43 92/1/43 93/1/43
f 82/1/43 93/1/43 83/1/43
f 83/1/12 93/1/12 94/1/12
f 83/1/12 94/1/12 84/1/12
f 84/1/44 94/1/44 95/1/44
f 84/1/44 95/1/44 85/1/44
f 85/1/45 95/1/45 96/1/45
f 85/1/45 96/1/45 86/1/45
f 86/1/46 96/1/46 97/1/46
f 86/1/46 97/1/46 87/1/46
f 87/1/47 97/1/47 98/1/47
f 87/1/47 98/1/47 88/1/47
f 88/1/1 98/1/1 99/1/1
f 88/1/1 99/1/1 89/1/1
f 89/1/48 99/1/48 100/1/48
f 89/1/48 100/1/48 90/1/48
f 90/1/49 100/1/49 91/1/49
f 90/1/49 91/1/49 81/1/49
f 101/1/41 102/1/41 103/1/41
f 101/1/41 103/1/41 104/1/41
f 101/1/41 104/1/41 105/1/41
f 101/1/41 105/1/41 106/1/41
f 101/1/41 106/1/41 107/1/41
f 101/1/41 107/1/41 108/1/41
f 101/1/41 108/1/41 109/1/41
f 101/1/41 109/1/41 110/1/41
f 111/1/50 112/1/50 113/1/50
f 111/1/50 113/1/50 114/1/50
f 111/1/50 114/1/50 115/1/50
f 111/1/50 115/1/50 116/1/50
f 111/1/50 116/1/50 117/1/50
f 111/1/50 117/1/50 118/1/50
f 111/1/50 118/1/50 119/1/50
f 111/1/50 119/1/50 120/1/50
f 101/1/51 120/1/51 119/1/51
f 101/1/51 119/1/51 102/1/51
f 102/1/52 119/1/52 118/1/52
f 102/1/52 118/1/52 103/1/52
f 103/1/53 118/1/53 117/1/53
f 103/1/53 117/1/53 104/1/53
f 104/1/54 117/1/54 116/1/54
f 104/1/54 116/1/54 105/1/54
f 105/1/55 116/1/55 115/1/55
f 105/1/55 115/1/55 106/1/55
f 106/1/56 115/1/56 114/1/56
f 106/1/56 114/1/56 107/1/56
f 107/1/57 114/1/57 113/1/57
f 107/1/57 113/1/57 108/1/57
f 108/1/58 113/1/58 112/1/58
f 108/1/58 112/1/58 109/1/58
f 109/1/59 112/1/59 111/1/59
f 109/1/59 111/1/59 110/1/59
f 110/1/60 111/1/60 120/1/60
f 110/1/60 120/1/60 101/1/60
# 64 triangles in group

# 192 triangles total

